<svg width="25" height="25" viewBox="0 0 25 25" fill="none" xmlns="http://www.w3.org/2000/svg">
<path d="M9 9.49133C9.55228 9.49133 10 9.93905 10 10.4913V19.4913C10 20.0436 9.55228 20.4913 9 20.4913C8.44771 20.4913 8 20.0436 8 19.4913V10.4913C8 9.93905 8.44771 9.49133 9 9.49133Z" fill="#002EFF"/>
<path d="M16 10.4913C16 9.93905 15.5523 9.49133 15 9.49133C14.4477 9.49133 14 9.93905 14 10.4913V19.4913C14 20.0436 14.4477 20.4913 15 20.4913C15.5523 20.4913 16 20.0436 16 19.4913V10.4913Z" fill="#002EFF"/>
<path fill-rule="evenodd" clip-rule="evenodd" d="M10 0.474976C7.79086 0.474976 6 2.26584 6 4.47498V5.47498H3V5.47913H1.01355C0.461265 5.47913 0.0135498 5.92684 0.0135498 6.47913C0.0135498 7.03141 0.461266 7.47913 1.01355 7.47913H3V20.475C3 22.6841 4.79086 24.475 7 24.475H17C19.2091 24.475 21 22.6841 21 20.475V7.47913H23.0135C23.5658 7.47913 24.0135 7.03141 24.0135 6.47913C24.0135 5.92684 23.5658 5.47913 23.0135 5.47913H21V5.47498H18V4.47498C18 2.26584 16.2091 0.474976 14 0.474976H10ZM16 5.47498V4.47498C16 3.37041 15.1046 2.47498 14 2.47498H10C8.89543 2.47498 8 3.37041 8 4.47498V5.47498H16ZM19 7.47913H5V20.475C5 21.5795 5.89543 22.475 7 22.475H17C18.1046 22.475 19 21.5795 19 20.475V7.47913Z" fill="#002EFF"/>
</svg>
